<svg id="Layer_1" data-name="Layer 1" xmlns="http://www.w3.org/2000/svg" xmlns:xlink="http://www.w3.org/1999/xlink" viewBox="0 0 128 128"><defs><style>.cls-1{fill:none;}.cls-2{fill:#4a5d71;}.cls-3{clip-path:url(#clip-path);}.cls-4{fill:#e0ebff;}.cls-5{fill:#fff;}.cls-6{fill:#e3ebfa;}.cls-7{fill:#8c97ab;}.cls-8{fill:#cbd5f4;}.cls-9{fill:#ffb638;}</style><clipPath id="clip-path"><circle class="cls-1" cx="64" cy="63.97" r="64"/></clipPath></defs><title>Icon 2</title><circle class="cls-2" cx="64" cy="63.97" r="64"/><g class="cls-3"><polygon class="cls-4" points="25.08 63.01 25.08 67.57 -25.2 41.16 -25.2 36.61 25.08 63.01"/><polygon class="cls-5" points="25.08 63.01 -25.2 36.61 -20.12 34.64 30.16 61.05 25.08 63.01"/><polygon class="cls-6" points="14.42 105.01 14.42 109.57 -35.85 83.16 -35.85 78.6 14.42 105.01"/><path class="cls-7" d="M63.5,30.46c-5.34,0-9.66-2.41-9.66-5.39V43.76c0,3,4.33,5.39,9.66,5.39s9.66-2.41,9.66-5.38V25.08C73.15,28,68.83,30.46,63.5,30.46Z"/><path class="cls-8" d="M63.5,30.46c-5.34,0-9.66-2.41-9.66-5.38s4.33-5.38,9.66-5.38,9.66,2.41,9.66,5.38h0C73.15,28,68.83,30.46,63.5,30.46Z"/><ellipse class="cls-5" cx="63.5" cy="25.08" rx="4.65" ry="2.59"/><polygon class="cls-4" points="59.79 44.19 59.79 48.74 29.5 67.21 29.5 62.65 59.79 44.19"/><polygon class="cls-5" points="29.5 62.65 24.67 60.51 54.96 42.04 59.79 44.19 29.5 62.65"/><path class="cls-7" d="M29.32,45.23c-5.42,0-9.82-2.45-9.82-5.47V65.6c0,3,4.4,5.47,9.82,5.47s9.82-2.45,9.82-5.47V39.75C39.13,42.78,34.74,45.23,29.32,45.23Z"/><path class="cls-8" d="M29.32,45.23c-5.42,0-9.82-2.45-9.82-5.47h0c0-3,4.4-5.47,9.82-5.47s9.82,2.45,9.82,5.47S34.74,45.23,29.32,45.23Z"/><ellipse class="cls-5" cx="29.32" cy="39.75" rx="4.64" ry="2.59"/><polygon class="cls-4" points="82.54 92.8 82.54 97.35 32.27 70.95 32.27 66.39 82.54 92.8"/><polygon class="cls-5" points="82.54 92.8 32.27 66.39 37.34 64.43 87.62 90.83 82.54 92.8"/><polygon class="cls-5" points="-15.5 132.66 -20.32 130.51 9.97 112.05 14.79 114.19 -15.5 132.66"/><polygon class="cls-5" points="52.77 127.45 47.77 125.43 85.26 104.61 90.26 106.63 52.77 127.45"/><polygon class="cls-5" points="151.5 132.98 101.22 106.57 106.3 104.61 156.58 131.01 151.5 132.98"/><path class="cls-9" d="M95.87,107.14c-7.86,0-14.23-3.55-14.23-7.93S88,91.28,95.87,91.28s14.23,3.55,14.23,7.93h0C110.1,103.59,103.73,107.14,95.87,107.14Z"/><path class="cls-7" d="M95.87,68C88,68,81.64,64.4,81.64,60V99.21c0,4.38,6.37,7.93,14.23,7.93s14.23-3.55,14.23-7.93V60C110.1,64.4,103.73,68,95.87,68Z"/><polygon class="cls-4" points="151.5 128.42 151.5 132.98 101.22 106.57 101.22 102.01 151.5 128.42"/><polygon class="cls-4" points="90.26 102.07 90.26 106.63 52.77 127.45 52.77 122.89 90.26 102.07"/><polygon class="cls-5" points="52.77 122.89 47.77 120.87 85.26 100.05 90.26 102.07 52.77 122.89"/><polygon class="cls-5" points="151.5 128.42 101.22 102.01 106.3 100.05 156.58 126.45 151.5 128.42"/><path class="cls-8" d="M95.87,68C88,68,81.64,64.4,81.64,60S88,52.09,95.87,52.09,110.1,55.64,110.1,60h0C110.1,64.4,103.73,68,95.87,68Z"/><ellipse class="cls-5" cx="95.87" cy="60.02" rx="4.65" ry="2.59"/><path class="cls-7" d="M44.65,106.49c-5.34,0-9.66-2.41-9.66-5.39v31.22c0,3,4.33,5.39,9.66,5.39s9.66-2.41,9.66-5.38V101.1C54.3,104.07,50,106.49,44.65,106.49Z"/><path class="cls-8" d="M44.65,106.49c-5.34,0-9.66-2.41-9.66-5.38s4.33-5.38,9.66-5.38,9.66,2.41,9.66,5.38h0C54.3,104.07,50,106.49,44.65,106.49Z"/><ellipse class="cls-5" cx="44.64" cy="101.1" rx="4.65" ry="2.59"/></g></svg>